<mxfile host="app.diagrams.net" modified="2021-12-12T06:32:58.413Z" agent="5.0 (X11; Linux x86_64) AppleWebKit/537.36 (KHTML, like Gecko) Chrome/96.0.4664.45 Safari/537.36" etag="Od1ef3wD96JfbtirlhZh" version="15.9.4" type="github">
  <diagram id="UfmZcZUgszk8OOR1oBgz" name="Page-1">
    <mxGraphModel dx="981" dy="547" grid="1" gridSize="10" guides="1" tooltips="1" connect="1" arrows="1" fold="1" page="1" pageScale="1" pageWidth="827" pageHeight="1169" math="0" shadow="0">
      <root>
        <mxCell id="0" />
        <mxCell id="1" parent="0" />
        <mxCell id="yg2f-OdLsY0NM2jIDbTP-1" value="资产负债表（美元）" style="swimlane;fontStyle=0;childLayout=stackLayout;horizontal=1;startSize=30;horizontalStack=0;resizeParent=1;resizeParentMax=0;resizeLast=0;collapsible=1;marginBottom=0;" parent="1" vertex="1">
          <mxGeometry x="50" y="350" width="190" height="240" as="geometry">
            <mxRectangle x="100" y="350" width="140" height="30" as="alternateBounds" />
          </mxGeometry>
        </mxCell>
        <mxCell id="yg2f-OdLsY0NM2jIDbTP-2" value="现金等价物 279亿（QoQ -50亿）" style="text;strokeColor=#82b366;fillColor=#d5e8d4;align=left;verticalAlign=middle;spacingLeft=4;spacingRight=4;overflow=hidden;points=[[0,0.5],[1,0.5]];portConstraint=eastwest;rotatable=0;" parent="yg2f-OdLsY0NM2jIDbTP-1" vertex="1">
          <mxGeometry y="30" width="190" height="30" as="geometry" />
        </mxCell>
        <mxCell id="yg2f-OdLsY0NM2jIDbTP-3" value="信用卡客户应收账款487亿" style="text;strokeColor=#82b366;fillColor=#d5e8d4;align=left;verticalAlign=middle;spacingLeft=4;spacingRight=4;overflow=hidden;points=[[0,0.5],[1,0.5]];portConstraint=eastwest;rotatable=0;" parent="yg2f-OdLsY0NM2jIDbTP-1" vertex="1">
          <mxGeometry y="60" width="190" height="30" as="geometry" />
        </mxCell>
        <mxCell id="yg2f-OdLsY0NM2jIDbTP-4" value="信用卡客户贷款735亿**" style="text;strokeColor=#82b366;fillColor=#d5e8d4;align=left;verticalAlign=middle;spacingLeft=4;spacingRight=4;overflow=hidden;points=[[0,0.5],[1,0.5]];portConstraint=eastwest;rotatable=0;labelBackgroundColor=none;" parent="yg2f-OdLsY0NM2jIDbTP-1" vertex="1">
          <mxGeometry y="90" width="190" height="30" as="geometry" />
        </mxCell>
        <mxCell id="_scnfwicN0OqMZllfAQ0-2" value="投资证券96" style="text;strokeColor=#82b366;fillColor=#d5e8d4;align=left;verticalAlign=middle;spacingLeft=4;spacingRight=4;overflow=hidden;points=[[0,0.5],[1,0.5]];portConstraint=eastwest;rotatable=0;" vertex="1" parent="yg2f-OdLsY0NM2jIDbTP-1">
          <mxGeometry y="120" width="190" height="30" as="geometry" />
        </mxCell>
        <mxCell id="yg2f-OdLsY0NM2jIDbTP-9" value="客户存款843亿" style="text;strokeColor=#b85450;fillColor=#f8cecc;align=left;verticalAlign=middle;spacingLeft=4;spacingRight=4;overflow=hidden;points=[[0,0.5],[1,0.5]];portConstraint=eastwest;rotatable=0;" parent="yg2f-OdLsY0NM2jIDbTP-1" vertex="1">
          <mxGeometry y="150" width="190" height="30" as="geometry" />
        </mxCell>
        <mxCell id="yg2f-OdLsY0NM2jIDbTP-10" value="长期债务635亿" style="text;strokeColor=#b85450;fillColor=#f8cecc;align=left;verticalAlign=middle;spacingLeft=4;spacingRight=4;overflow=hidden;points=[[0,0.5],[1,0.5]];portConstraint=eastwest;rotatable=0;" parent="yg2f-OdLsY0NM2jIDbTP-1" vertex="1">
          <mxGeometry y="180" width="190" height="30" as="geometry" />
        </mxCell>
        <mxCell id="yg2f-OdLsY0NM2jIDbTP-29" value="净资产119亿" style="text;strokeColor=#6c8ebf;fillColor=#dae8fc;align=left;verticalAlign=middle;spacingLeft=4;spacingRight=4;overflow=hidden;points=[[0,0.5],[1,0.5]];portConstraint=eastwest;rotatable=0;" parent="yg2f-OdLsY0NM2jIDbTP-1" vertex="1">
          <mxGeometry y="210" width="190" height="30" as="geometry" />
        </mxCell>
        <mxCell id="yg2f-OdLsY0NM2jIDbTP-5" value="浓缩利润表（近9个月, 美元）" style="swimlane;fontStyle=0;childLayout=stackLayout;horizontal=1;startSize=30;horizontalStack=0;resizeParent=1;resizeParentMax=0;resizeLast=0;collapsible=1;marginBottom=0;" parent="1" vertex="1">
          <mxGeometry x="270" y="350" width="190" height="330" as="geometry" />
        </mxCell>
        <mxCell id="yg2f-OdLsY0NM2jIDbTP-6" value="商家手续费182亿" style="text;strokeColor=#82b366;fillColor=#d5e8d4;align=left;verticalAlign=middle;spacingLeft=4;spacingRight=4;overflow=hidden;points=[[0,0.5],[1,0.5]];portConstraint=eastwest;rotatable=0;" parent="yg2f-OdLsY0NM2jIDbTP-5" vertex="1">
          <mxGeometry y="30" width="190" height="30" as="geometry" />
        </mxCell>
        <mxCell id="yg2f-OdLsY0NM2jIDbTP-7" value="信用卡费56亿" style="text;strokeColor=#82b366;fillColor=#d5e8d4;align=left;verticalAlign=middle;spacingLeft=4;spacingRight=4;overflow=hidden;points=[[0,0.5],[1,0.5]];portConstraint=eastwest;rotatable=0;" parent="yg2f-OdLsY0NM2jIDbTP-5" vertex="1">
          <mxGeometry y="60" width="190" height="30" as="geometry" />
        </mxCell>
        <mxCell id="_scnfwicN0OqMZllfAQ0-3" value="贷款利息收入65亿" style="text;strokeColor=#82b366;fillColor=#d5e8d4;align=left;verticalAlign=middle;spacingLeft=4;spacingRight=4;overflow=hidden;points=[[0,0.5],[1,0.5]];portConstraint=eastwest;rotatable=0;" vertex="1" parent="yg2f-OdLsY0NM2jIDbTP-5">
          <mxGeometry y="90" width="190" height="30" as="geometry" />
        </mxCell>
        <mxCell id="yg2f-OdLsY0NM2jIDbTP-16" value="利息支出10亿 " style="text;strokeColor=#b85450;fillColor=#f8cecc;align=left;verticalAlign=middle;spacingLeft=4;spacingRight=4;overflow=hidden;points=[[0,0.5],[1,0.5]];portConstraint=eastwest;rotatable=0;" parent="yg2f-OdLsY0NM2jIDbTP-5" vertex="1">
          <mxGeometry y="120" width="190" height="30" as="geometry" />
        </mxCell>
        <mxCell id="yg2f-OdLsY0NM2jIDbTP-17" value="贷款坏账7.35亿***" style="text;strokeColor=#b85450;fillColor=#f8cecc;align=left;verticalAlign=middle;spacingLeft=4;spacingRight=4;overflow=hidden;points=[[0,0.5],[1,0.5]];portConstraint=eastwest;rotatable=0;" parent="yg2f-OdLsY0NM2jIDbTP-5" vertex="1">
          <mxGeometry y="150" width="190" height="30" as="geometry" />
        </mxCell>
        <mxCell id="_scnfwicN0OqMZllfAQ0-5" value="营销费用63亿" style="text;strokeColor=#b85450;fillColor=#f8cecc;align=left;verticalAlign=middle;spacingLeft=4;spacingRight=4;overflow=hidden;points=[[0,0.5],[1,0.5]];portConstraint=eastwest;rotatable=0;" vertex="1" parent="yg2f-OdLsY0NM2jIDbTP-5">
          <mxGeometry y="180" width="190" height="30" as="geometry" />
        </mxCell>
        <mxCell id="_scnfwicN0OqMZllfAQ0-6" value="客户福利93亿" style="text;strokeColor=#b85450;fillColor=#f8cecc;align=left;verticalAlign=middle;spacingLeft=4;spacingRight=4;overflow=hidden;points=[[0,0.5],[1,0.5]];portConstraint=eastwest;rotatable=0;" vertex="1" parent="yg2f-OdLsY0NM2jIDbTP-5">
          <mxGeometry y="210" width="190" height="30" as="geometry" />
        </mxCell>
        <mxCell id="_scnfwicN0OqMZllfAQ0-7" value="员工工资及其他开销75亿" style="text;strokeColor=#b85450;fillColor=#f8cecc;align=left;verticalAlign=middle;spacingLeft=4;spacingRight=4;overflow=hidden;points=[[0,0.5],[1,0.5]];portConstraint=eastwest;rotatable=0;" vertex="1" parent="yg2f-OdLsY0NM2jIDbTP-5">
          <mxGeometry y="240" width="190" height="30" as="geometry" />
        </mxCell>
        <mxCell id="yg2f-OdLsY0NM2jIDbTP-30" value="税费20亿（实际税率24.3%）" style="text;strokeColor=#b85450;fillColor=#f8cecc;align=left;verticalAlign=middle;spacingLeft=4;spacingRight=4;overflow=hidden;points=[[0,0.5],[1,0.5]];portConstraint=eastwest;rotatable=0;" parent="yg2f-OdLsY0NM2jIDbTP-5" vertex="1">
          <mxGeometry y="270" width="190" height="30" as="geometry" />
        </mxCell>
        <mxCell id="yg2f-OdLsY0NM2jIDbTP-28" value="净利润35亿（年化46亿）" style="text;strokeColor=#6c8ebf;fillColor=#dae8fc;align=left;verticalAlign=middle;spacingLeft=4;spacingRight=4;overflow=hidden;points=[[0,0.5],[1,0.5]];portConstraint=eastwest;rotatable=0;" parent="yg2f-OdLsY0NM2jIDbTP-5" vertex="1">
          <mxGeometry y="300" width="190" height="30" as="geometry" />
        </mxCell>
        <mxCell id="yg2f-OdLsY0NM2jIDbTP-32" value="美国运通财务状况浓缩图&lt;span style=&quot;font-size: 12px ; text-align: left&quot;&gt;*&lt;/span&gt;&lt;br&gt;（2021年9月）" style="text;html=1;strokeColor=none;fillColor=none;align=center;verticalAlign=middle;whiteSpace=wrap;rounded=0;fontSize=17;" parent="1" vertex="1">
          <mxGeometry x="240" y="310" width="268" height="30" as="geometry" />
        </mxCell>
        <mxCell id="_scnfwicN0OqMZllfAQ0-4" value="&lt;span&gt;*&lt;/span&gt;&lt;span&gt;浓缩的财务状况省略了数额较小的项目&lt;/span&gt;&lt;span&gt;&lt;br&gt;*&lt;/span&gt;&lt;span&gt;*&lt;/span&gt;&lt;span&gt;客户贷款的平均年利率估算为为11.7%&lt;br&gt;&lt;/span&gt;&lt;span&gt;***2021年前9个月的坏账都以及在2020年时提前减值了，我们这里以1%的坏账率来估计。&lt;/span&gt;&lt;span&gt;&lt;br&gt;&lt;/span&gt;&lt;span&gt;&lt;br&gt;&lt;/span&gt;" style="text;html=1;strokeColor=none;fillColor=none;align=left;verticalAlign=middle;whiteSpace=wrap;rounded=0;" vertex="1" parent="1">
          <mxGeometry x="50" y="683" width="370" height="60" as="geometry" />
        </mxCell>
        <mxCell id="_scnfwicN0OqMZllfAQ0-8" value="净利润分配（近9个月, 美元）" style="swimlane;fontStyle=0;childLayout=stackLayout;horizontal=1;startSize=30;horizontalStack=0;resizeParent=1;resizeParentMax=0;resizeLast=0;collapsible=1;marginBottom=0;labelBackgroundColor=none;align=center;" vertex="1" parent="1">
          <mxGeometry x="480" y="350" width="190" height="120" as="geometry" />
        </mxCell>
        <mxCell id="_scnfwicN0OqMZllfAQ0-10" value="分红11亿" style="text;strokeColor=#82b366;fillColor=#d5e8d4;align=left;verticalAlign=middle;spacingLeft=4;spacingRight=4;overflow=hidden;points=[[0,0.5],[1,0.5]];portConstraint=eastwest;rotatable=0;labelBackgroundColor=none;" vertex="1" parent="_scnfwicN0OqMZllfAQ0-8">
          <mxGeometry y="30" width="190" height="30" as="geometry" />
        </mxCell>
        <mxCell id="_scnfwicN0OqMZllfAQ0-11" value="回购47亿" style="text;strokeColor=#82b366;fillColor=#d5e8d4;align=left;verticalAlign=middle;spacingLeft=4;spacingRight=4;overflow=hidden;points=[[0,0.5],[1,0.5]];portConstraint=eastwest;rotatable=0;labelBackgroundColor=none;" vertex="1" parent="_scnfwicN0OqMZllfAQ0-8">
          <mxGeometry y="60" width="190" height="30" as="geometry" />
        </mxCell>
        <mxCell id="_scnfwicN0OqMZllfAQ0-12" value="总回报股东58亿" style="text;strokeColor=#6c8ebf;fillColor=#dae8fc;align=left;verticalAlign=middle;spacingLeft=4;spacingRight=4;overflow=hidden;points=[[0,0.5],[1,0.5]];portConstraint=eastwest;rotatable=0;labelBackgroundColor=none;" vertex="1" parent="_scnfwicN0OqMZllfAQ0-8">
          <mxGeometry y="90" width="190" height="30" as="geometry" />
        </mxCell>
      </root>
    </mxGraphModel>
  </diagram>
</mxfile>
